<svg width="1024" height="1024" viewBox="0 0 1024 1024" xmlns="http://www.w3.org/2000/svg">
  <rect width="1024" height="1024" fill="#f5f5f5"/>
  
  <!-- Number "1" -->
  <path d="M400 200 L550 200 L550 530 L600 530 L600 580 L350 580 L350 530 L400 530 Z" fill="#2c5282"/>
  
  <!-- Pen barrel -->
  <g transform="rotate(45 600 400)">
    <!-- Main pen body -->
    <rect x="580" y="200" width="40" height="400" rx="20" fill="#2c5282"/>
    <!-- Pen tip -->
    <polygon points="580,600 620,600 610,650 590,650" fill="#2c5282"/>
    <!-- Pen clip -->
    <rect x="610" y="220" width="8" height="60" rx="4" fill="#2c5282"/>
    <!-- Pen bands -->
    <rect x="575" y="340" width="50" height="8" fill="white"/>
    <rect x="575" y="355" width="50" height="4" fill="white"/>
  </g>
  
  <!-- Target/Bulls-eye -->
  <g transform="translate(512, 700)">
    <!-- Outer ring -->
    <ellipse cx="0" cy="0" rx="180" ry="60" fill="none" stroke="#2c5282" stroke-width="12"/>
    <!-- Middle ring -->
    <ellipse cx="0" cy="0" rx="120" ry="40" fill="none" stroke="#2c5282" stroke-width="8"/>
    <!-- Inner circle -->
    <ellipse cx="0" cy="0" rx="80" ry="26" fill="#60a5fa"/>
    <!-- Center dot -->
    <circle cx="0" cy="0" r="6" fill="white"/>
    <!-- Pen tip hitting target -->
    <circle cx="-20" cy="-5" r="4" fill="#2c5282"/>
  </g>
</svg>